<svg width="24" height="24" viewBox="0 0 24 24" fill="none" xmlns="http://www.w3.org/2000/svg">
<path d="M7 10C7 8.34315 8.34315 7 10 7H17V14C17 15.6569 15.6569 17 14 17H7V10Z" fill="#FF8038"/>
<path d="M0 2C0 0.89543 0.895431 0 2 0H15C16.1046 0 17 0.895431 17 2V4H6C4.89543 4 4 4.89543 4 6V17H2C0.895431 17 0 16.1046 0 15V2Z" fill="#FF8038"/>
<path d="M0 2C0 0.89543 0.895431 0 2 0H15C16.1046 0 17 0.895431 17 2V4H6C4.89543 4 4 4.89543 4 6V17H2C0.895431 17 0 16.1046 0 15V2Z" fill="#FF8038"/>
<path d="M24 22C24 23.1046 23.1046 24 22 24L9 24C7.89543 24 7 23.1046 7 22V20L18 20C19.1046 20 20 19.1046 20 18L20 7H22C23.1046 7 24 7.89543 24 9L24 22Z" fill="#FF8038"/>
<path d="M24 22C24 23.1046 23.1046 24 22 24L9 24C7.89543 24 7 23.1046 7 22V20L18 20C19.1046 20 20 19.1046 20 18L20 7H22C23.1046 7 24 7.89543 24 9L24 22Z" fill="#FF8038"/>
</svg>
