<svg width="120" height="36" viewBox="0 0 120 36" fill="none" xmlns="http://www.w3.org/2000/svg">
<g clip-path="url(#clip0)">
<path d="M10.5 15C10.5 12.5147 12.5147 10.5 15 10.5H25.5V21C25.5 23.4853 23.4854 25.5 21 25.5H10.5V15Z" fill="#FF8038"/>
<path d="M0 3C0 1.34314 1.34315 0 3 0H22.5C24.1569 0 25.5 1.34315 25.5 3V6H9C7.34314 6 6 7.34314 6 9V25.5H3C1.34315 25.5 0 24.1569 0 22.5V3Z" fill="#FF8038"/>
<path d="M0 3C0 1.34314 1.34315 0 3 0H22.5C24.1569 0 25.5 1.34315 25.5 3V6H9C7.34314 6 6 7.34314 6 9V25.5H3C1.34315 25.5 0 24.1569 0 22.5V3Z" fill="#FF8038"/>
<path d="M36 33C36 34.6569 34.6569 36 33 36H13.5C11.8431 36 10.5 34.6569 10.5 33V30H27C28.6569 30 30 28.6569 30 27V10.5H33C34.6569 10.5 36 11.8431 36 13.5V33Z" fill="#FF8038"/>
<path d="M36 33C36 34.6569 34.6569 36 33 36H13.5C11.8431 36 10.5 34.6569 10.5 33V30H27C28.6569 30 30 28.6569 30 27V10.5H33C34.6569 10.5 36 11.8431 36 13.5V33Z" fill="#FF8038"/>
</g>
<path d="M62.918 21.3164C62.7852 23.1523 62.1055 24.5977 60.8789 25.6523C59.6602 26.707 58.0508 27.2344 56.0508 27.2344C53.8633 27.2344 52.1406 26.5 50.8828 25.0312C49.6328 23.5547 49.0078 21.5312 49.0078 18.9609V17.918C49.0078 16.2773 49.2969 14.832 49.875 13.582C50.4531 12.332 51.2773 11.375 52.3477 10.7109C53.4258 10.0391 54.6758 9.70312 56.0977 9.70312C58.0664 9.70312 59.6523 10.2305 60.8555 11.2852C62.0586 12.3398 62.7539 13.8203 62.9414 15.7266H59.4258C59.3398 14.625 59.0312 13.8281 58.5 13.3359C57.9766 12.8359 57.1758 12.5859 56.0977 12.5859C54.9258 12.5859 54.0469 13.0078 53.4609 13.8516C52.8828 14.6875 52.5859 15.9883 52.5703 17.7539V19.043C52.5703 20.8867 52.8477 22.2344 53.4023 23.0859C53.9648 23.9375 54.8477 24.3633 56.0508 24.3633C57.1367 24.3633 57.9453 24.1172 58.4766 23.625C59.0156 23.125 59.3242 22.3555 59.4023 21.3164H62.918ZM64.4766 20.543C64.4766 19.2852 64.7188 18.1641 65.2031 17.1797C65.6875 16.1953 66.3828 15.4336 67.2891 14.8945C68.2031 14.3555 69.2617 14.0859 70.4648 14.0859C72.1758 14.0859 73.5703 14.6094 74.6484 15.6562C75.7344 16.7031 76.3398 18.125 76.4648 19.9219L76.4883 20.7891C76.4883 22.7344 75.9453 24.2969 74.8594 25.4766C73.7734 26.6484 72.3164 27.2344 70.4883 27.2344C68.6602 27.2344 67.1992 26.6484 66.1055 25.4766C65.0195 24.3047 64.4766 22.7109 64.4766 20.6953V20.543ZM67.8633 20.7891C67.8633 21.9922 68.0898 22.9141 68.543 23.5547C68.9961 24.1875 69.6445 24.5039 70.4883 24.5039C71.3086 24.5039 71.9492 24.1914 72.4102 23.5664C72.8711 22.9336 73.1016 21.9258 73.1016 20.543C73.1016 19.3633 72.8711 18.4492 72.4102 17.8008C71.9492 17.1523 71.3008 16.8281 70.4648 16.8281C69.6367 16.8281 68.9961 17.1523 68.543 17.8008C68.0898 18.4414 67.8633 19.4375 67.8633 20.7891ZM78.0469 20.5664C78.0469 18.5898 78.4883 17.0156 79.3711 15.8438C80.2617 14.6719 81.4766 14.0859 83.0156 14.0859C84.25 14.0859 85.2695 14.5469 86.0742 15.4688V9H89.4727V27H86.4141L86.25 25.6523C85.4062 26.707 84.3203 27.2344 82.9922 27.2344C81.5 27.2344 80.3008 26.6484 79.3945 25.4766C78.4961 24.2969 78.0469 22.6602 78.0469 20.5664ZM81.4336 20.8125C81.4336 22 81.6406 22.9102 82.0547 23.543C82.4688 24.1758 83.0703 24.4922 83.8594 24.4922C84.9062 24.4922 85.6445 24.0508 86.0742 23.168V18.1641C85.6523 17.2812 84.9219 16.8398 83.8828 16.8398C82.25 16.8398 81.4336 18.1641 81.4336 20.8125ZM97.9336 27.2344C96.0742 27.2344 94.5586 26.6641 93.3867 25.5234C92.2227 24.3828 91.6406 22.8633 91.6406 20.9648V20.6367C91.6406 19.3633 91.8867 18.2266 92.3789 17.2266C92.8711 16.2188 93.5664 15.4453 94.4648 14.9062C95.3711 14.3594 96.4023 14.0859 97.5586 14.0859C99.293 14.0859 100.656 14.6328 101.648 15.7266C102.648 16.8203 103.148 18.3711 103.148 20.3789V21.7617H95.0742C95.1836 22.5898 95.5117 23.2539 96.0586 23.7539C96.6133 24.2539 97.3125 24.5039 98.1562 24.5039C99.4609 24.5039 100.48 24.0312 101.215 23.0859L102.879 24.9492C102.371 25.668 101.684 26.2305 100.816 26.6367C99.9492 27.0352 98.9883 27.2344 97.9336 27.2344ZM97.5469 16.8281C96.875 16.8281 96.3281 17.0547 95.9062 17.5078C95.4922 17.9609 95.2266 18.6094 95.1094 19.4531H99.8203V19.1836C99.8047 18.4336 99.6016 17.8555 99.2109 17.4492C98.8203 17.0352 98.2656 16.8281 97.5469 16.8281ZM108.656 27H105.258V14.3203H108.656V27ZM105.059 11.0391C105.059 10.5312 105.227 10.1133 105.562 9.78516C105.906 9.45703 106.371 9.29297 106.957 9.29297C107.535 9.29297 107.996 9.45703 108.34 9.78516C108.684 10.1133 108.855 10.5312 108.855 11.0391C108.855 11.5547 108.68 11.9766 108.328 12.3047C107.984 12.6328 107.527 12.7969 106.957 12.7969C106.387 12.7969 105.926 12.6328 105.574 12.3047C105.23 11.9766 105.059 11.5547 105.059 11.0391ZM115.512 11.2031V14.3203H117.68V16.8047H115.512V23.1328C115.512 23.6016 115.602 23.9375 115.781 24.1406C115.961 24.3438 116.305 24.4453 116.812 24.4453C117.188 24.4453 117.52 24.418 117.809 24.3633V26.9297C117.145 27.1328 116.461 27.2344 115.758 27.2344C113.383 27.2344 112.172 26.0352 112.125 23.6367V16.8047H110.273V14.3203H112.125V11.2031H115.512Z" fill="white"/>
<defs>
<clipPath id="clip0">
<rect width="36" height="36" fill="white"/>
</clipPath>
</defs>
</svg>
